<svg width="512" height="512" viewBox="0 0 512 512" fill="none" xmlns="http://www.w3.org/2000/svg" role="img" aria-label="Markity">
  <defs>
    <linearGradient id="tile" x1="256" y1="44" x2="256" y2="444" gradientUnits="userSpaceOnUse">
      <stop offset="0" stop-color="#e7cdb5"/><stop offset="0.45" stop-color="#c4905f"/><stop offset="1" stop-color="#8f5a30"/>
    </linearGradient>
    <linearGradient id="gloss" x1="256" y1="44" x2="256" y2="256" gradientUnits="userSpaceOnUse">
      <stop offset="0" stop-color="#ffffff" stop-opacity="0.5"/><stop offset="1" stop-color="#ffffff" stop-opacity="0"/>
    </linearGradient>
    <linearGradient id="rim" x1="256" y1="46" x2="256" y2="442" gradientUnits="userSpaceOnUse">
      <stop offset="0" stop-color="#ffffff" stop-opacity="0.7"/><stop offset="0.5" stop-color="#ffffff" stop-opacity="0"/><stop offset="1" stop-color="#10221c" stop-opacity="0.4"/>
    </linearGradient>
    <linearGradient id="feather" x1="220" y1="120" x2="290" y2="330" gradientUnits="userSpaceOnUse">
      <stop offset="0" stop-color="#fffdf7"/><stop offset="1" stop-color="#ece1cf"/>
    </linearGradient>
    <linearGradient id="featherGloss" x1="225" y1="120" x2="250" y2="320" gradientUnits="userSpaceOnUse">
      <stop offset="0" stop-color="#ffffff" stop-opacity="0.55"/><stop offset="0.7" stop-color="#ffffff" stop-opacity="0"/>
    </linearGradient>
    <linearGradient id="nib" x1="0" y1="114" x2="0" y2="192" gradientUnits="userSpaceOnUse">
      <stop offset="0" stop-color="#9ccbff"/><stop offset="0.5" stop-color="#2b7bea"/><stop offset="1" stop-color="#0f52b8"/>
    </linearGradient>
    <linearGradient id="vane" x1="0" y1="0" x2="1" y2="0.2">
      <stop offset="0" stop-color="#6b4a2a" stop-opacity="0"/><stop offset="1" stop-color="#6b4a2a" stop-opacity="0.2"/>
    </linearGradient>
    <clipPath id="clip"><rect x="56" y="44" width="400" height="400" rx="96"/></clipPath>
    <filter id="dropTile" x="-25%" y="-25%" width="150%" height="160%"><feDropShadow dx="0" dy="16" stdDeviation="20" flood-color="#27302c" flood-opacity="0.4"/></filter>
    <filter id="dropQuill" x="-45%" y="-45%" width="190%" height="190%"><feDropShadow dx="0" dy="8" stdDeviation="11" flood-color="#1c2620" flood-opacity="0.42"/></filter>
  </defs>
  <g filter="url(#dropTile)">
    <rect x="56" y="44" width="400" height="400" rx="96" fill="url(#tile)"/>
    <g clip-path="url(#clip)"><path d="M56 44 H456 V200 C360 262 152 262 56 200 Z" fill="url(#gloss)"/></g>
    <rect x="57.5" y="45.5" width="397" height="397" rx="94.5" fill="none" stroke="url(#rim)" stroke-width="3"/>
  </g>
  <g filter="url(#dropQuill)" transform="translate(256 240) rotate(-30) scale(1.13)">
    <path d="M0.0 -162.0 Q10.0 -159.8 13.8 -158.1 Q17.5 -156.4 21.4 -154.7 Q25.3 -153.1 29.1 -151.4 Q32.9 -149.7 35.0 -147.2 Q37.1 -144.7 39.7 -142.4 Q42.3 -140.1 45.9 -138.4 Q49.6 -136.7 51.8 -134.3 Q54.1 -131.9 54.9 -128.8 Q55.8 -125.7 57.8 -123.2 Q59.9 -120.7 63.2 -118.9 Q66.6 -117.1 66.6 -113.6 Q66.7 -110.2 66.6 -106.7 Q66.6 -103.2 68.1 -100.6 Q69.7 -97.9 72.0 -95.7 Q74.4 -93.4 72.4 -89.1 Q70.4 -84.7 69.6 -80.9 Q68.9 -77.2 69.8 -74.3 Q70.7 -71.4 70.7 -68.1 Q70.7 -64.8 67.9 -60.1 Q65.1 -55.4 63.8 -51.5 Q62.5 -47.5 62.5 -44.3 Q62.5 -41.0 60.3 -36.7 Q58.1 -32.3 54.9 -27.5 Q51.7 -22.7 49.8 -18.5 Q47.8 -14.3 46.6 -10.5 Q45.4 -6.7 41.5 -1.6 Q37.7 3.5 34.2 8.4 Q30.8 13.3 27.9 17.9 Q25.1 22.5 22.0 27.2 Q18.9 31.9 14.4 37.3 Q10.0 42.7 5.0 48.3 Q0.0 54.0 0.0 54.0 Q0.0 54.0 -0.0 54.0 Q-0.0 54.0 -4.1 48.3 Q-8.2 42.7 -11.8 37.3 Q-15.3 31.9 -17.6 27.2 Q-19.9 22.5 -21.9 17.9 Q-23.9 13.3 -26.6 8.4 Q-29.2 3.5 -32.3 -1.6 Q-35.4 -6.7 -35.9 -10.5 Q-36.4 -14.3 -37.7 -18.5 Q-38.9 -22.7 -41.5 -27.5 Q-44.1 -32.3 -45.9 -36.7 Q-47.6 -41.0 -47.1 -44.3 Q-46.7 -47.5 -47.6 -51.5 Q-48.5 -55.4 -51.0 -60.1 Q-53.5 -64.8 -53.2 -68.1 Q-53.0 -71.4 -52.0 -74.3 Q-51.0 -77.2 -51.7 -80.9 Q-52.4 -84.7 -54.4 -89.1 Q-56.4 -93.4 -54.2 -95.7 Q-52.0 -97.9 -50.7 -100.6 Q-49.3 -103.2 -49.7 -106.7 Q-50.1 -110.2 -50.4 -113.6 Q-50.7 -117.1 -47.8 -118.9 Q-44.9 -120.7 -43.4 -123.2 Q-41.9 -125.7 -41.6 -128.8 Q-41.4 -131.9 -39.8 -134.3 Q-38.2 -136.7 -35.2 -138.4 Q-32.3 -140.1 -30.4 -142.4 Q-28.6 -144.7 -27.3 -147.2 Q-26.0 -149.7 -23.0 -151.4 Q-20.1 -153.1 -17.0 -154.7 Q-14.0 -156.4 -11.1 -158.1 L-8.3 -159.8 Z" fill="url(#feather)" stroke="#6f5230" stroke-width="1.6" stroke-opacity="0.72"/>
    <path d="M0.0 -162.0 Q10.0 -159.8 13.8 -158.1 Q17.5 -156.4 21.4 -154.7 Q25.3 -153.1 29.1 -151.4 Q32.9 -149.7 35.0 -147.2 Q37.1 -144.7 39.7 -142.4 Q42.3 -140.1 45.9 -138.4 Q49.6 -136.7 51.8 -134.3 Q54.1 -131.9 54.9 -128.8 Q55.8 -125.7 57.8 -123.2 Q59.9 -120.7 63.2 -118.9 Q66.6 -117.1 66.6 -113.6 Q66.7 -110.2 66.6 -106.7 Q66.6 -103.2 68.1 -100.6 Q69.7 -97.9 72.0 -95.7 Q74.4 -93.4 72.4 -89.1 Q70.4 -84.7 69.6 -80.9 Q68.9 -77.2 69.8 -74.3 Q70.7 -71.4 70.7 -68.1 Q70.7 -64.8 67.9 -60.1 Q65.1 -55.4 63.8 -51.5 Q62.5 -47.5 62.5 -44.3 Q62.5 -41.0 60.3 -36.7 Q58.1 -32.3 54.9 -27.5 Q51.7 -22.7 49.8 -18.5 Q47.8 -14.3 46.6 -10.5 Q45.4 -6.7 41.5 -1.6 Q37.7 3.5 34.2 8.4 Q30.8 13.3 27.9 17.9 Q25.1 22.5 22.0 27.2 Q18.9 31.9 14.4 37.3 Q10.0 42.7 5.0 48.3 Q0.0 54.0 0.0 54.0 Q0.0 54.0 -0.0 54.0 Q-0.0 54.0 -4.1 48.3 Q-8.2 42.7 -11.8 37.3 Q-15.3 31.9 -17.6 27.2 Q-19.9 22.5 -21.9 17.9 Q-23.9 13.3 -26.6 8.4 Q-29.2 3.5 -32.3 -1.6 Q-35.4 -6.7 -35.9 -10.5 Q-36.4 -14.3 -37.7 -18.5 Q-38.9 -22.7 -41.5 -27.5 Q-44.1 -32.3 -45.9 -36.7 Q-47.6 -41.0 -47.1 -44.3 Q-46.7 -47.5 -47.6 -51.5 Q-48.5 -55.4 -51.0 -60.1 Q-53.5 -64.8 -53.2 -68.1 Q-53.0 -71.4 -52.0 -74.3 Q-51.0 -77.2 -51.7 -80.9 Q-52.4 -84.7 -54.4 -89.1 Q-56.4 -93.4 -54.2 -95.7 Q-52.0 -97.9 -50.7 -100.6 Q-49.3 -103.2 -49.7 -106.7 Q-50.1 -110.2 -50.4 -113.6 Q-50.7 -117.1 -47.8 -118.9 Q-44.9 -120.7 -43.4 -123.2 Q-41.9 -125.7 -41.6 -128.8 Q-41.4 -131.9 -39.8 -134.3 Q-38.2 -136.7 -35.2 -138.4 Q-32.3 -140.1 -30.4 -142.4 Q-28.6 -144.7 -27.3 -147.2 Q-26.0 -149.7 -23.0 -151.4 Q-20.1 -153.1 -17.0 -154.7 Q-14.0 -156.4 -11.1 -158.1 L-8.3 -159.8 Z" fill="url(#featherGloss)"/>
    <path d="M0.0 -162.0 Q10.0 -159.8 13.8 -158.1 Q17.5 -156.4 21.4 -154.7 Q25.3 -153.1 29.1 -151.4 Q32.9 -149.7 35.0 -147.2 Q37.1 -144.7 39.7 -142.4 Q42.3 -140.1 45.9 -138.4 Q49.6 -136.7 51.8 -134.3 Q54.1 -131.9 54.9 -128.8 Q55.8 -125.7 57.8 -123.2 Q59.9 -120.7 63.2 -118.9 Q66.6 -117.1 66.6 -113.6 Q66.7 -110.2 66.6 -106.7 Q66.6 -103.2 68.1 -100.6 Q69.7 -97.9 72.0 -95.7 Q74.4 -93.4 72.4 -89.1 Q70.4 -84.7 69.6 -80.9 Q68.9 -77.2 69.8 -74.3 Q70.7 -71.4 70.7 -68.1 Q70.7 -64.8 67.9 -60.1 Q65.1 -55.4 63.8 -51.5 Q62.5 -47.5 62.5 -44.3 Q62.5 -41.0 60.3 -36.7 Q58.1 -32.3 54.9 -27.5 Q51.7 -22.7 49.8 -18.5 Q47.8 -14.3 46.6 -10.5 Q45.4 -6.7 41.5 -1.6 Q37.7 3.5 34.2 8.4 Q30.8 13.3 27.9 17.9 Q25.1 22.5 22.0 27.2 Q18.9 31.9 14.4 37.3 Q10.0 42.7 5.0 48.3 Q0.0 54.0 0.0 54.0 Q0.0 54.0 -0.0 54.0 Q-0.0 54.0 -4.1 48.3 Q-8.2 42.7 -11.8 37.3 Q-15.3 31.9 -17.6 27.2 Q-19.9 22.5 -21.9 17.9 Q-23.9 13.3 -26.6 8.4 Q-29.2 3.5 -32.3 -1.6 Q-35.4 -6.7 -35.9 -10.5 Q-36.4 -14.3 -37.7 -18.5 Q-38.9 -22.7 -41.5 -27.5 Q-44.1 -32.3 -45.9 -36.7 Q-47.6 -41.0 -47.1 -44.3 Q-46.7 -47.5 -47.6 -51.5 Q-48.5 -55.4 -51.0 -60.1 Q-53.5 -64.8 -53.2 -68.1 Q-53.0 -71.4 -52.0 -74.3 Q-51.0 -77.2 -51.7 -80.9 Q-52.4 -84.7 -54.4 -89.1 Q-56.4 -93.4 -54.2 -95.7 Q-52.0 -97.9 -50.7 -100.6 Q-49.3 -103.2 -49.7 -106.7 Q-50.1 -110.2 -50.4 -113.6 Q-50.7 -117.1 -47.8 -118.9 Q-44.9 -120.7 -43.4 -123.2 Q-41.9 -125.7 -41.6 -128.8 Q-41.4 -131.9 -39.8 -134.3 Q-38.2 -136.7 -35.2 -138.4 Q-32.3 -140.1 -30.4 -142.4 Q-28.6 -144.7 -27.3 -147.2 Q-26.0 -149.7 -23.0 -151.4 Q-20.1 -153.1 -17.0 -154.7 Q-14.0 -156.4 -11.1 -158.1 L-8.3 -159.8 Z" fill="url(#vane)"/>
    <g stroke="#90703f" stroke-width="2.1" stroke-linecap="round" fill="none" opacity="0.66">
      <path d="M2.6 -141.8 Q15.1 -154.2 25.3 -153.1"/>
      <path d="M2.6 -141.8 Q-9.9 -154.2 -20.1 -153.1"/>
      <path d="M3.4 -135.0 Q19.6 -151.2 32.9 -149.7"/>
      <path d="M3.4 -135.0 Q-12.7 -151.2 -26.0 -149.7"/>
      <path d="M4.2 -128.3 Q22.3 -146.3 37.1 -144.7"/>
      <path d="M4.2 -128.3 Q-13.8 -146.3 -28.6 -144.7"/>
      <path d="M5.0 -121.5 Q25.5 -142.0 42.3 -140.1"/>
      <path d="M5.0 -121.5 Q-15.5 -142.0 -32.3 -140.1"/>
      <path d="M5.7 -114.8 Q29.8 -138.9 49.6 -136.7"/>
      <path d="M5.7 -114.8 Q-18.4 -138.9 -38.2 -136.7"/>
      <path d="M6.4 -108.0 Q32.6 -134.3 54.1 -131.9"/>
      <path d="M6.4 -108.0 Q-19.9 -134.3 -41.4 -131.9"/>
      <path d="M7.0 -101.3 Q33.8 -128.1 55.8 -125.7"/>
      <path d="M7.0 -101.3 Q-19.9 -128.1 -41.9 -125.7"/>
      <path d="M7.5 -94.5 Q36.3 -123.3 59.9 -120.7"/>
      <path d="M7.5 -94.5 Q-21.3 -123.3 -44.9 -120.7"/>
      <path d="M7.9 -87.8 Q40.2 -120.0 66.6 -117.1"/>
      <path d="M7.9 -87.8 Q-24.3 -120.0 -50.7 -117.1"/>
      <path d="M8.3 -81.0 Q40.4 -113.1 66.7 -110.2"/>
      <path d="M8.3 -81.0 Q-23.8 -113.1 -50.1 -110.2"/>
      <path d="M8.6 -74.3 Q40.5 -106.1 66.6 -103.2"/>
      <path d="M8.6 -74.3 Q-23.3 -106.1 -49.3 -103.2"/>
      <path d="M8.8 -67.5 Q42.3 -101.0 69.7 -97.9"/>
      <path d="M8.8 -67.5 Q-24.6 -101.0 -52.0 -97.9"/>
      <path d="M9.0 -60.8 Q44.9 -96.7 74.4 -93.4"/>
      <path d="M9.0 -60.8 Q-27.0 -96.7 -56.4 -93.4"/>
      <path d="M9.0 -54.0 Q42.7 -87.7 70.4 -84.7"/>
      <path d="M9.0 -54.0 Q-24.7 -87.7 -52.4 -84.7"/>
      <path d="M9.0 -47.3 Q41.9 -80.2 68.9 -77.2"/>
      <path d="M9.0 -47.3 Q-24.0 -80.2 -51.0 -77.2"/>
      <path d="M8.8 -40.5 Q42.8 -74.5 70.7 -71.4"/>
      <path d="M8.8 -40.5 Q-25.2 -74.5 -53.0 -71.4"/>
      <path d="M8.6 -33.8 Q42.7 -67.9 70.7 -64.8"/>
      <path d="M8.6 -33.8 Q-25.5 -67.9 -53.5 -64.8"/>
      <path d="M8.3 -27.0 Q30.8 -49.5 49.2 -47.5"/>
      <path d="M8.3 -27.0 Q-14.2 -49.5 -32.6 -47.5"/>
      <path d="M7.9 -20.3 Q29.6 -41.9 47.2 -39.9"/>
      <path d="M7.9 -20.3 Q-13.7 -41.9 -31.4 -39.9"/>
      <path d="M7.5 -13.5 Q37.8 -43.8 62.5 -41.0"/>
      <path d="M7.5 -13.5 Q-22.8 -43.8 -47.6 -41.0"/>
      <path d="M7.0 -6.8 Q35.1 -34.9 58.1 -32.3"/>
      <path d="M7.0 -6.8 Q-21.1 -34.9 -44.1 -32.3"/>
      <path d="M6.4 0.0 Q31.3 -24.9 51.7 -22.7"/>
      <path d="M6.4 0.0 Q-18.6 -24.9 -38.9 -22.7"/>
      <path d="M5.7 6.8 Q28.9 -16.4 47.8 -14.3"/>
      <path d="M5.7 6.8 Q-17.5 -16.4 -36.4 -14.3"/>
      <path d="M5.0 13.5 Q27.2 -8.7 45.4 -6.7"/>
      <path d="M5.0 13.5 Q-17.2 -8.7 -35.4 -6.7"/>
      <path d="M4.2 20.3 Q22.7 1.8 37.7 3.5"/>
      <path d="M4.2 20.3 Q-14.2 1.8 -29.2 3.5"/>
      <path d="M3.4 27.0 Q18.5 12.0 30.8 13.3"/>
      <path d="M3.4 27.0 Q-11.6 12.0 -23.9 13.3"/>
      <path d="M2.6 33.8 Q15.0 21.4 25.1 22.5"/>
      <path d="M2.6 33.8 Q-9.8 21.4 -19.9 22.5"/>
      <path d="M1.8 40.5 Q11.2 31.1 18.9 31.9"/>
      <path d="M1.8 40.5 Q-7.6 31.1 -15.3 31.9"/>
      <path d="M0.9 47.3 Q5.9 42.2 10.0 42.7"/>
      <path d="M0.9 47.3 Q-4.1 42.2 -8.2 42.7"/>
    </g>
    <path d="M0 -162 Q4 -54 0 54" stroke="#dccbab" stroke-width="4.5" fill="none" stroke-linecap="round"/>
    <path d="M0 -162 Q4 -54 0 54" stroke="#fffdf7" stroke-width="1.5" fill="none" stroke-linecap="round" opacity="0.65"/>
    <path d="M-8 54 L8 54 L7 116 L-7 116 Z" fill="#f3ead8"/>
    <path d="M-8 54 L-2 54 L-4 116 L-8 116 Z" fill="#fffdf7" opacity="0.65"/>
    <path d="M-10 116 L10 116 L6.5 152 L0 192 L-6.5 152 Z" fill="url(#nib)" stroke="#0c2c5c" stroke-width="0.8" stroke-opacity="0.6"/>
    <circle cx="0" cy="132" r="3.1" fill="#0e2a52"/>
    <path d="M0 136 L0 186" stroke="#0e2a52" stroke-width="1.8" stroke-linecap="round"/>
    <path d="M-5.5 119 L-2 156" stroke="#d6ebff" stroke-width="1.9" stroke-linecap="round" opacity="0.8"/>
  </g>
</svg>
