<svg width="512" height="512" viewBox="0 0 512 512" fill="none" xmlns="http://www.w3.org/2000/svg" role="img" aria-label="Markity">
  <defs>
    <linearGradient id="tile" x1="256" y1="44" x2="256" y2="444" gradientUnits="userSpaceOnUse">
      <stop offset="0" stop-color="#3a8460"/><stop offset="1" stop-color="#235138"/>
    </linearGradient>
    <filter id="dropTile" x="-25%" y="-25%" width="150%" height="160%"><feDropShadow dx="0" dy="16" stdDeviation="20" flood-color="#162a20" flood-opacity="0.38"/></filter>
  </defs>
  <g filter="url(#dropTile)">
    <rect x="56" y="44" width="400" height="400" rx="96" fill="url(#tile)"/>
  </g>
  <svg x="124" y="112" width="264" height="264" viewBox="0 40 1024 944">
    <path d="M1020.319744 102.4a3.7376 3.7376 0 0 1 1.3312 7.2704 196.7616 196.7616 0 0 0-105.5232 84.1728c-48.384 80.384-53.5552 161.9456-137.6768 175.7696s-109.6192 20.224-116.4288 30.72l115.3024 20.48a302.08 302.08 0 0 1-90.624 103.168 482.1504 482.1504 0 0 1-137.2672 56.32 537.088 537.088 0 0 0 80.6912 18.7392s-108.4928 128.9216-341.76 113.2544a177.0496 177.0496 0 0 0 79.9232 31.6928 387.9424 387.9424 0 0 1-160.8192 49.3568 259.3792 259.3792 0 0 0 77.8752 4.2496 211.0464 211.0464 0 0 1-144.9472 34.3552s271.36-382.1056 534.784-554.1376c0 0-312.832 159.232-664.5248 673.0752 0 0-10.9568 3.8912-10.6496-8.6528s125.6448-220.5184 125.6448-220.5184a350.3616 350.3616 0 0 1 19.2-138.24 197.7344 197.7344 0 0 0 17.8176 77.6192 504.2176 504.2176 0 0 1 54.2208-176.5376 277.4528 277.4528 0 0 0 9.4208 126.3104 574.9248 574.9248 0 0 1 59.904-208.384 467.2512 467.2512 0 0 0 1.3824 114.3808S546.770944 107.4688 1020.319744 102.4z" fill="#fdf7ec"/>
  </svg>
</svg>
